<svg
  xmlns="http://www.w3.org/2000/svg"
  viewBox="0 0 256 256"
  role="img"
  aria-labelledby="faviconTitle faviconDesc"
>
  <title id="faviconTitle">Calistenia Feminina Sob Medida</title>
  <desc id="faviconDesc">
    Emblema abstrato de calistenia feminina em support hold com perna em L-sit.
  </desc>
  <defs>
    <linearGradient id="bg" x1="32" y1="24" x2="224" y2="232" gradientUnits="userSpaceOnUse">
      <stop offset="0" stop-color="#ffffff" />
      <stop offset="1" stop-color="#f0ebe3" />
    </linearGradient>
    <linearGradient id="body" x1="104" y1="60" x2="170" y2="190" gradientUnits="userSpaceOnUse">
      <stop offset="0" stop-color="#8b4a52" />
      <stop offset="1" stop-color="#6f3941" />
    </linearGradient>
  </defs>

  <rect x="8" y="8" width="240" height="240" rx="56" fill="url(#bg)" />
  <rect
    x="14"
    y="14"
    width="228"
    height="228"
    rx="50"
    fill="none"
    stroke="#d4ccc4"
    stroke-width="6"
  />

  <g fill="#2c2c2c">
    <rect x="58" y="120" width="44" height="14" rx="7" />
    <rect x="154" y="120" width="44" height="14" rx="7" />
    <rect x="72" y="132" width="10" height="58" rx="5" />
    <rect x="174" y="132" width="10" height="58" rx="5" />
  </g>

  <circle cx="128" cy="74" r="16" fill="url(#body)" />
  <path
    d="M116 100 H140 M128 104 V152 H168 M128 116 L96 130 M128 116 L160 130 M168 152 V184"
    fill="none"
    stroke="url(#body)"
    stroke-linecap="round"
    stroke-linejoin="round"
    stroke-width="16"
  />

  <path
    d="M88 200 H168"
    fill="none"
    stroke="#5b8a8b"
    stroke-linecap="round"
    stroke-width="8"
  />
</svg>
